
<svg version="1.0" xmlns="http://www.w3.org/2000/svg"
 width="512.000000pt" height="512.000000pt" viewBox="0 0 512.000000 512.000000"
 preserveAspectRatio="xMidYMid meet">

<g transform="translate(0.000000,512.000000) scale(0.100000,-0.100000)"
fill="#000000" stroke="none">
<path d="M306 5109 c-62 -15 -153 -68 -197 -116 -22 -24 -55 -74 -72 -111
l-32 -67 0 -1776 0 -1775 37 -76 c45 -91 103 -147 196 -191 l67 -32 636 -3
636 -3 -20 -83 c-20 -80 -22 -84 -58 -100 -49 -22 -112 -93 -127 -144 -7 -22
-12 -90 -12 -151 0 -105 1 -113 25 -136 l24 -25 416 0 415 0 0 80 0 80 -360 0
-360 0 0 55 c0 46 4 60 25 80 l24 25 336 0 335 0 0 80 0 80 -269 0 -269 0 20
80 20 80 249 0 249 0 0 80 0 80 -936 0 c-706 0 -947 3 -978 12 -55 16 -138 99
-154 154 -7 24 -12 100 -12 178 l0 136 1040 0 1040 0 0 80 0 80 -1040 0 -1040
0 0 1496 c0 1146 3 1506 12 1538 16 55 99 138 154 154 23 7 85 12 138 12 l96
0 0 80 0 80 -107 -1 c-60 -1 -125 -5 -147 -10z"/>
<path d="M720 5040 l0 -80 80 0 80 0 0 80 0 80 -80 0 -80 0 0 -80z"/>
<path d="M1040 5040 l0 -80 1856 0 c1429 0 1866 -3 1898 -12 55 -16 138 -99
154 -154 17 -60 17 -3448 0 -3508 -13 -44 -105 -146 -132 -146 -14 0 -16 133
-18 1277 l-3 1278 -32 67 c-44 93 -100 151 -191 196 l-76 37 -895 0 -896 0
-67 -32 c-93 -44 -151 -100 -196 -191 l-37 -76 0 -1696 0 -1696 37 -76 c45
-91 103 -147 196 -191 l67 -32 895 0 895 0 67 32 c93 44 151 100 196 191 l37
76 3 333 c3 266 6 333 16 333 7 0 45 16 83 35 86 43 144 103 186 193 l32 67 0
1775 0 1775 -32 67 c-44 93 -100 151 -191 196 l-76 37 -1888 3 -1888 2 0 -80z
m3434 -1212 c55 -16 138 -99 154 -154 23 -80 42 -74 -243 -74 l-256 0 -24 -25
c-16 -15 -25 -36 -25 -55 0 -49 -20 -116 -41 -139 -19 -21 -27 -21 -439 -21
-412 0 -420 0 -439 21 -21 23 -41 90 -41 139 0 19 -9 40 -25 55 l-24 25 -256
0 c-285 0 -266 -6 -243 74 15 51 99 137 148 153 52 16 1698 17 1754 1z m-1499
-420 c19 -85 79 -164 147 -192 56 -24 900 -24 956 0 68 28 128 107 147 192 l7
32 204 0 204 0 0 -1400 0 -1400 -1040 0 -1040 0 0 1400 0 1400 204 0 204 0 7
-32z m1665 -2984 c0 -31 -5 -75 -12 -98 -16 -55 -99 -138 -154 -154 -59 -17
-1689 -17 -1748 0 -55 16 -138 99 -154 154 -7 23 -12 67 -12 98 l0 56 1040 0
1040 0 0 -56z"/>
<path d="M3280 3600 l0 -80 320 0 320 0 0 80 0 80 -320 0 -320 0 0 -80z"/>
<path d="M3445 2866 c-314 -60 -577 -286 -675 -579 -187 -555 195 -1126 779
-1164 415 -27 792 249 904 662 29 107 30 316 3 419 -87 328 -316 559 -641 648
-92 25 -276 32 -370 14z m370 -180 c113 -36 198 -89 290 -181 131 -131 199
-277 212 -454 30 -434 -330 -796 -765 -767 -107 6 -228 43 -320 97 -77 46
-208 179 -255 259 -21 36 -49 101 -64 145 -22 68 -26 98 -27 205 -1 148 14
215 76 340 73 147 234 290 388 346 143 51 324 55 465 10z"/>
<path d="M3663 2338 l-222 -222 -65 62 c-98 94 -98 94 -273 -81 -129 -128
-143 -146 -143 -177 0 -32 19 -53 223 -257 204 -205 225 -223 257 -223 32 0
61 27 417 383 356 355 383 385 383 417 0 31 -14 49 -143 177 -128 128 -146
143 -177 143 -31 0 -54 -20 -257 -222z m322 -38 l60 -60 -303 -303 -302 -302
-142 143 -143 142 62 62 62 62 65 -62 c102 -98 88 -104 351 158 121 121 222
220 225 220 3 0 32 -27 65 -60z"/>
<path d="M3280 320 l0 -80 320 0 320 0 0 80 0 80 -320 0 -320 0 0 -80z"/>
<path d="M1065 4775 c-22 -21 -25 -33 -25 -98 l0 -74 -67 -26 -67 -27 -53 52
c-81 80 -88 77 -250 -85 -162 -162 -165 -169 -85 -250 l52 -53 -27 -67 -26
-67 -74 0 c-65 0 -77 -3 -98 -25 -25 -24 -25 -26 -25 -215 0 -189 0 -191 25
-215 21 -22 33 -25 98 -25 l74 0 26 -67 27 -67 -52 -53 c-80 -81 -77 -88 85
-250 162 -162 169 -165 250 -85 l53 52 67 -27 67 -26 0 -74 c0 -65 3 -77 25
-98 24 -25 26 -25 215 -25 189 0 191 0 215 25 22 21 25 33 25 98 l0 74 67 26
67 27 53 -52 c81 -80 88 -77 250 85 162 162 165 169 85 250 l-52 53 27 67 26
67 74 0 c65 0 77 3 98 25 25 24 25 26 25 215 0 189 0 191 -25 215 -21 22 -33
25 -98 25 l-74 0 -26 67 -27 67 52 53 c80 81 77 88 -85 250 -162 162 -169 165
-250 85 l-53 -52 -67 27 -67 26 0 74 c0 65 -3 77 -25 98 -24 25 -26 25 -215
25 -189 0 -191 0 -215 -25z m295 -198 c0 -80 15 -97 107 -127 37 -12 92 -35
120 -51 73 -40 94 -38 154 18 l50 47 56 -57 57 -56 -47 -50 c-56 -60 -58 -81
-18 -154 16 -28 39 -83 51 -120 30 -92 47 -107 127 -107 l63 0 0 -80 0 -80
-63 0 c-80 0 -97 -15 -127 -107 -12 -37 -35 -92 -51 -120 -40 -73 -38 -94 18
-154 l47 -50 -57 -56 -56 -57 -50 47 c-60 56 -81 58 -154 18 -28 -16 -83 -39
-120 -51 -92 -30 -107 -47 -107 -127 l0 -63 -80 0 -80 0 0 63 c0 80 -15 97
-107 127 -37 12 -92 35 -120 51 -73 40 -94 38 -154 -18 l-50 -47 -56 57 -57
56 47 50 c56 60 58 81 18 154 -16 28 -39 83 -51 120 -30 92 -47 107 -127 107
l-63 0 0 80 0 80 63 0 c80 0 97 15 127 107 12 37 35 92 51 120 40 73 38 94
-18 154 l-47 50 57 56 56 57 50 -47 c60 -56 81 -58 154 -18 28 16 83 39 120
51 92 30 107 47 107 127 l0 63 80 0 80 0 0 -63z"/>
<path d="M1186 4230 c-63 -16 -153 -70 -197 -117 -22 -24 -55 -74 -72 -111
-29 -61 -32 -76 -32 -163 0 -90 2 -99 37 -171 45 -91 103 -147 196 -191 61
-29 76 -32 162 -32 86 0 101 3 162 32 93 44 151 100 196 191 35 72 37 81 37
172 0 91 -2 100 -37 172 -68 136 -188 217 -336 224 -42 2 -94 -1 -116 -6z
m168 -162 c86 -26 166 -136 166 -228 0 -92 -80 -202 -166 -228 -94 -28 -169
-8 -239 63 -102 101 -102 229 0 330 70 71 145 90 239 63z"/>
<path d="M3360 4720 l0 -80 520 0 520 0 0 80 0 80 -520 0 -520 0 0 -80z"/>
<path d="M4560 4720 l0 -80 80 0 80 0 0 80 0 80 -80 0 -80 0 0 -80z"/>
<path d="M1945 2935 c-22 -21 -25 -33 -25 -98 l0 -74 -67 -26 -67 -27 -53 52
c-81 80 -88 77 -250 -85 -162 -162 -165 -169 -85 -250 l52 -53 -27 -67 -26
-67 -74 0 c-65 0 -77 -3 -98 -25 -25 -24 -25 -27 -25 -200 l0 -175 80 0 80 0
0 120 0 120 63 0 c80 0 97 15 127 107 12 37 35 92 51 120 40 73 38 94 -18 154
l-47 50 57 56 56 57 50 -47 c60 -56 81 -58 154 -18 28 16 83 39 120 51 92 30
107 47 107 127 l0 63 120 0 120 0 0 80 0 80 -175 0 c-173 0 -176 0 -200 -25z"/>
<path d="M2066 2389 c-62 -15 -153 -68 -197 -116 -50 -55 -96 -151 -105 -220
l-7 -53 79 0 79 0 12 51 c22 90 92 160 182 182 l51 12 0 77 0 78 -27 -1 c-16
-1 -45 -5 -67 -10z"/>
<path d="M320 1360 l0 -80 80 0 80 0 0 80 0 80 -80 0 -80 0 0 -80z"/>
<path d="M640 1360 l0 -80 240 0 240 0 0 80 0 80 -240 0 -240 0 0 -80z"/>
</g>
</svg>
