
<svg version="1.0" xmlns="http://www.w3.org/2000/svg"
 width="512.000000pt" height="512.000000pt" viewBox="0 0 512.000000 512.000000"
 preserveAspectRatio="xMidYMid meet">

<g transform="translate(0.000000,512.000000) scale(0.100000,-0.100000)"
fill="#000000" stroke="none">
<path d="M820 5104 c-180 -38 -357 -177 -439 -344 -106 -217 -92 -446 41 -653
17 -26 29 -49 27 -51 -2 -1 -33 -20 -69 -41 -131 -79 -258 -225 -311 -357 -47
-117 -51 -146 -56 -384 -5 -220 -4 -233 16 -272 14 -28 35 -49 61 -62 39 -20
54 -20 2470 -20 2416 0 2431 0 2470 20 26 13 47 34 61 62 20 39 21 52 16 272
-5 238 -9 267 -56 384 -52 131 -173 270 -301 349 -41 26 -77 48 -79 49 -2 2
10 25 27 51 133 207 147 436 41 653 -59 119 -170 230 -289 289 -96 47 -194 71
-290 71 -239 0 -474 -146 -579 -360 -106 -217 -92 -446 41 -653 17 -26 29 -49
27 -51 -2 -1 -33 -20 -69 -41 -36 -21 -100 -72 -142 -114 l-78 -74 -77 74
c-43 42 -107 93 -143 114 -36 21 -67 40 -69 41 -2 2 10 25 27 51 133 207 147
436 41 653 -59 119 -170 230 -289 289 -193 94 -387 94 -580 0 -119 -59 -230
-170 -289 -289 -106 -217 -92 -446 41 -653 17 -26 29 -49 27 -51 -2 -1 -33
-20 -69 -41 -36 -21 -100 -72 -142 -114 l-78 -74 -77 74 c-43 42 -107 93 -143
114 -36 21 -67 40 -69 41 -2 2 10 25 27 51 133 207 147 436 41 653 -59 119
-170 230 -289 289 -139 68 -284 87 -430 55z m294 -323 c75 -37 128 -91 165
-170 22 -47 26 -70 26 -141 0 -76 -4 -93 -33 -152 -38 -77 -92 -130 -171 -167
-47 -22 -70 -26 -141 -26 -71 0 -94 4 -141 26 -79 37 -133 90 -171 167 -29 59
-33 76 -33 152 0 71 4 94 26 140 87 186 293 260 473 171z m1600 0 c75 -37 128
-91 165 -170 22 -47 26 -70 26 -141 0 -76 -4 -93 -33 -152 -38 -77 -92 -130
-171 -167 -47 -22 -70 -26 -141 -26 -71 0 -94 4 -141 26 -79 37 -133 90 -171
167 -29 59 -33 76 -33 152 0 71 4 94 26 140 87 186 293 260 473 171z m1600 0
c75 -37 128 -91 165 -170 22 -47 26 -70 26 -141 0 -76 -4 -93 -33 -152 -38
-77 -92 -130 -171 -167 -47 -22 -70 -26 -141 -26 -71 0 -94 4 -141 26 -79 37
-133 90 -171 167 -29 59 -33 76 -33 152 0 71 4 94 26 140 87 186 293 260 473
171z m-3062 -972 c87 -18 158 -58 223 -123 99 -99 135 -199 135 -371 l0 -95
-650 0 -650 0 0 95 c0 174 36 273 135 370 64 64 127 100 210 121 65 16 523 18
597 3z m1600 0 c87 -18 158 -58 223 -123 99 -99 135 -199 135 -371 l0 -95
-650 0 -650 0 0 95 c0 174 36 273 135 370 64 64 127 100 210 121 65 16 523 18
597 3z m1600 0 c87 -18 158 -58 223 -123 99 -99 135 -199 135 -371 l0 -95
-650 0 -650 0 0 95 c0 174 36 273 135 370 64 64 127 100 210 121 65 16 523 18
597 3z"/>
<path d="M820 2604 c-180 -38 -357 -177 -439 -344 -106 -217 -92 -446 41 -653
17 -26 29 -49 27 -51 -2 -1 -38 -23 -79 -49 -128 -79 -249 -218 -301 -349 -47
-117 -51 -146 -56 -384 -5 -220 -4 -233 16 -272 14 -28 35 -49 61 -62 39 -20
56 -20 1581 -20 l1541 0 92 -94 c146 -150 303 -240 516 -298 115 -32 362 -31
484 1 393 102 669 379 779 781 29 109 29 371 0 480 -35 128 -80 231 -142 327
-267 412 -774 584 -1236 419 -219 -79 -403 -226 -530 -426 -27 -41 -49 -76
-51 -78 -2 -3 -43 16 -53 24 -2 2 10 25 27 51 133 207 147 436 41 653 -59 119
-170 230 -289 289 -193 94 -387 94 -580 0 -119 -59 -230 -170 -289 -289 -106
-217 -92 -446 41 -653 17 -26 29 -49 27 -51 -2 -1 -33 -20 -69 -41 -36 -21
-100 -72 -142 -114 l-78 -74 -77 74 c-43 42 -107 93 -143 114 -36 21 -67 40
-69 41 -2 2 10 25 27 51 133 207 147 436 41 653 -59 119 -170 230 -289 289
-139 68 -284 87 -430 55z m294 -323 c75 -37 128 -91 165 -170 22 -47 26 -70
26 -141 0 -76 -4 -93 -33 -152 -38 -77 -92 -130 -171 -167 -47 -22 -70 -26
-141 -26 -71 0 -94 4 -141 26 -79 37 -133 90 -171 167 -29 59 -33 76 -33 152
0 71 4 94 26 140 87 186 293 260 473 171z m1600 0 c75 -37 128 -91 165 -170
22 -47 26 -70 26 -141 0 -76 -4 -93 -33 -152 -38 -77 -92 -130 -171 -167 -47
-22 -70 -26 -141 -26 -71 0 -94 4 -141 26 -79 37 -133 90 -171 167 -29 59 -33
76 -33 152 0 71 4 94 26 140 87 186 293 260 473 171z m1493 -497 c151 -31 275
-99 385 -211 138 -141 202 -285 215 -483 23 -365 -235 -699 -599 -774 -519
-107 -989 362 -882 882 83 404 480 669 881 586z m-2955 -475 c86 -19 158 -59
223 -124 98 -98 135 -198 135 -370 l0 -95 -650 0 -650 0 0 95 c0 174 36 273
135 370 64 64 127 100 210 121 66 16 523 18 597 3z m1617 -4 c30 -8 75 -25
100 -38 l46 -23 1 -180 c1 -151 4 -191 22 -258 12 -44 22 -81 22 -83 0 -1
-259 -3 -575 -3 l-575 0 0 95 c0 174 36 273 135 370 64 64 127 100 210 121 75
19 543 18 614 -1z"/>
<path d="M3988 1479 c-58 -30 -78 -79 -78 -189 l0 -90 -90 0 c-71 0 -99 -4
-130 -20 -45 -23 -80 -80 -80 -130 0 -50 35 -107 80 -130 31 -16 59 -20 130
-20 l90 0 0 -90 c0 -112 20 -159 80 -190 50 -25 90 -25 140 0 60 31 80 78 80
190 l0 90 90 0 c71 0 99 4 130 20 45 23 80 80 80 130 0 50 -35 107 -80 130
-31 16 -59 20 -130 20 l-90 0 0 90 c0 112 -20 159 -80 190 -49 25 -94 25 -142
-1z"/>
</g>
</svg>
