<svg height="512" width="512" xmlns="http://www.w3.org/2000/svg"><path d="m371.9840698 305.0354309c-13.512207 50.4207153-65.3348389 80.3459167-115.7602234 66.8311157-50.412796-13.506897-80.3380127-65.336792-66.8285217-115.7550049 13.5121155-50.420166 65.3348236-80.3407135 115.7522888-66.8312073 50.4254151 13.5121918 80.3458557 65.3322144 66.8364563 115.7550965zm50.7553101-62.6323395c-11.2525024-37.6410828-8.7817688-85.5812988 1.537384-125.3715134 12.3692322-47.6953278-20.7203064-100.8410263-69.2670898-113.8482208-49.4694214-13.2547064-104.374115 16.0929966-117.3787079 65.5311356-9.9639587 37.8788681-30.13974 75.1094818-56.2513275 103.1200562-29.6421051 31.1313171-67.3537521 53.2605896-109.6234741 64.5850067-51.4989624 13.8002625-82.0871506 66.8265381-68.2842865 118.3405151 13.8154516 51.499054 66.7622604 82.0894165 118.2840576 68.2717896 38.4583282-9.8154297 83.8827057-12.1695557 120.9203491-.5891418 44.8501434 14.0231323 75.1837311 31.7769775 109.0818329 64.9368896 36.6705322 35.8719788 97.1246948 30.8177185 131.9170837-3.9668579 35.3124084-35.2994385 38.5531921-96.1704712 3.2797546-132.7980347-29.7591247-30.9014893-50.32135-61.733551-64.2155761-108.2116242z"/></svg>