<?xml version="1.0" encoding="iso-8859-1"?>
<!-- Generator: Adobe Illustrator 19.1.0, SVG Export Plug-In . SVG Version: 6.00 Build 0)  -->
<svg version="1.1" id="Capa_1" xmlns="http://www.w3.org/2000/svg" xmlns:xlink="http://www.w3.org/1999/xlink" x="0px" y="0px"
	 viewBox="0 0 513.32 513.32" style="enable-background:new 0 0 513.32 513.32;" xml:space="preserve">
<g>
	<g>
		<g>
			<path d="M384.99,32.083H128.33v171.107h256.66V32.083z M342.213,160.413H171.107V74.86h171.107L342.213,160.413L342.213,160.413z
				"/>
			<polygon points="85.553,288.742 235.272,288.742 235.272,331.52 278.048,331.52 278.048,288.742 427.767,288.742 427.767,331.52 
				470.543,331.52 470.543,245.967 42.777,245.967 42.777,331.52 85.553,331.52 			"/>
			<path d="M384.99,352.908v128.33h128.33v-128.33L384.99,352.908L384.99,352.908z M470.543,438.461h-42.777v-42.777h42.777V438.461
				z"/>
			<path d="M192.495,481.237h128.33v-128.33h-128.33L192.495,481.237L192.495,481.237z M235.272,395.685h42.777v42.777h-42.777
				V395.685z"/>
			<path d="M0,481.237h128.33v-128.33H0V481.237z M42.777,395.685h42.777v42.777H42.777V395.685z"/>
		</g>
	</g>
</g>
<g>
</g>
<g>
</g>
<g>
</g>
<g>
</g>
<g>
</g>
<g>
</g>
<g>
</g>
<g>
</g>
<g>
</g>
<g>
</g>
<g>
</g>
<g>
</g>
<g>
</g>
<g>
</g>
<g>
</g>
</svg>
