<?xml version="1.0" ?><svg height="24" id="svg8" version="1.1" viewBox="0 0 24 24" width="24" xmlns="http://www.w3.org/2000/svg" xmlns:cc="http://creativecommons.org/ns#" xmlns:dc="http://purl.org/dc/elements/1.1/" xmlns:rdf="http://www.w3.org/1999/02/22-rdf-syntax-ns#" xmlns:svg="http://www.w3.org/2000/svg"><defs id="defs2"><rect height="7.0346723" id="rect2504" width="7.9207187" x="-1.1008456" y="289.81766"/></defs><g id="g6445" style="stroke-width:0.943946" transform="matrix(1.0593826,0,0,1.0593826,-0.71258924,-0.51093105)"><path d="m 12,1.7792954 c -1.432705,0 -2.6032259,1.1705204 -2.6032259,2.6032257 0,0.8166728 0.3883129,1.5388104 0.9808189,2.0169474 C 8.997147,7.0230893 8.026946,8.4061316 8.026946,10.014855 v 0.471973 h 3.501081 v 3.04017 H 4.2456304 v 2.89821 H 2.0277263 v 5.414784 h 5.414784 V 16.425208 H 5.1895764 v -1.952419 h 6.3384506 v 1.952419 H 9.293529 v 5.414784 h 5.412941 v -5.414784 h -2.234497 v -1.952419 h 6.33845 v 1.952419 h -2.252934 v 5.414784 h 5.414781 v -5.414784 h -2.217905 v -2.89821 h -7.282392 v -3.04017 h 3.50108 v -0.471973 c 0,-1.6087234 -0.9702,-2.9917657 -2.350646,-3.6153865 0.592505,-0.478137 0.980818,-1.2002746 0.980818,-2.0169474 0,-1.4327053 -1.17052,-2.6032257 -2.603225,-2.6032257 z m 0,0.9421025 c 0.922559,0 1.659279,0.7385641 1.659279,1.6611232 0,0.92256 -0.73672,1.6592806 -1.659279,1.6592806 -0.922559,0 -1.65928,-0.7367216 -1.65928,-1.6592806 0,-0.9225581 0.736721,-1.6611232 1.65928,-1.6611232 z M 10.235632,17.369154 h 3.528736 v 3.526892 h -3.528736 z" id="path1956" style="color:#000000;font-style:normal;font-variant:normal;font-weight:normal;font-stretch:normal;font-size:medium;line-height:normal;font-family:sans-serif;font-variant-ligatures:normal;font-variant-position:normal;font-variant-caps:normal;font-variant-numeric:normal;font-variant-alternates:normal;font-variant-east-asian:normal;font-feature-settings:normal;font-variation-settings:normal;text-indent:0;text-align:start;text-decoration:none;text-decoration-line:none;text-decoration-style:solid;text-decoration-color:#000000;letter-spacing:normal;word-spacing:normal;text-transform:none;writing-mode:lr-tb;direction:ltr;text-orientation:mixed;dominant-baseline:auto;baseline-shift:baseline;text-anchor:start;white-space:normal;shape-padding:0;shape-margin:0;inline-size:0;clip-rule:nonzero;display:inline;overflow:visible;visibility:visible;isolation:auto;mix-blend-mode:normal;color-interpolation:sRGB;color-interpolation-filters:linearRGB;solid-color:#000000;solid-opacity:1;vector-effect:none;fill:#000000;fill-opacity:1;fill-rule:nonzero;stroke:none;stroke-width:0.943946;stroke-linecap:butt;stroke-linejoin:miter;stroke-miterlimit:4;stroke-dasharray:none;stroke-dashoffset:0;stroke-opacity:1;paint-order:stroke fill markers;color-rendering:auto;image-rendering:auto;shape-rendering:auto;text-rendering:auto;enable-background:accumulate;stop-color:#000000"/></g></svg>