<svg height="32" viewBox="0 0 32 32" width="32" xmlns="http://www.w3.org/2000/svg"><path d="m8.0071 24.93a4.9958 4.9958 0 0 1 4.9929-4.93h6a4.9959 4.9959 0 0 1 4.9929 4.93 11.94 11.94 0 0 1 -15.9858 0zm12.4929-12.43a4.5 4.5 0 1 1 -4.5-4.5 4.5 4.5 0 0 1 4.5 4.5z" fill="none"/><path d="m26.7489 24.93a13.9893 13.9893 0 1 0 -24.7489-8.93 13.899 13.899 0 0 0 3.2511 8.93l-.02.0166c.07.0845.15.1567.2222.2392.09.1036.1864.2.28.3008.28.3033.5674.5952.87.87.0915.0831.1864.1612.28.2417.32.2759.6484.5372.99.7813.0441.0312.0832.0693.1276.1006v-.0127a13.9011 13.9011 0 0 0 16 0v.0125c.0444-.0313.0835-.0694.1276-.1006.3412-.2441.67-.5054.99-.7813.0936-.08.1885-.1586.28-.2417.3025-.2749.59-.5668.87-.87.0933-.1006.1894-.1972.28-.3008.0719-.0825.1522-.1547.2222-.2392zm-10.7489-16.93a4.5 4.5 0 1 1 -4.5 4.5 4.5 4.5 0 0 1 4.5-4.5zm-7.9929 16.93a4.9957 4.9957 0 0 1 4.9929-4.93h6a4.9958 4.9958 0 0 1 4.9929 4.93 11.94 11.94 0 0 1 -15.9858 0z"/><path d="m0 0h32v32h-32z" fill="none"/></svg>